# xmcd
#
# Track frame offsets: 
#        150
#        28145
#        49190
#        70510
#        81475
#        122060
#        156360
#        176570
#        186285
#        207875
#
# Disc length: 3159 seconds
#
# Revision: 0
# Processed by: cddbd v1.5.1PL0 Copyright (c) Steve Scherf et al.
# Submitted via: ExactAudioCopy v0.95a5
#
DISCID=8b0c550a
DTITLE=Mojo Mike - This is the Mojo Mike Blues Band
DYEAR=2001
DGENRE=Blues
TTITLE0=Hoochie Coochie Boy
TTITLE1=Messin With the Kid
TTITLE2=Born in Toledo
TTITLE3=Juke
TTITLE4=Little Red Rooster
TTITLE5=I'm Ready
TTITLE6=Sugar Sweet
TTITLE7=Cherry Pink Apple Blossom White
TTITLE8=Flamin Mamie
TTITLE9=I Got my Mojo Working
EXTD=
EXTT0=
EXTT1=
EXTT2=
EXTT3=
EXTT4=
EXTT5=
EXTT6=
EXTT7=
EXTT8=
EXTT9=
PLAYORDER=
